<mxfile host="app.diagrams.net" modified="2024-04-17T02:59:27.627Z" agent="Mozilla/5.0 (Macintosh; Intel Mac OS X 10_15_7) AppleWebKit/537.36 (KHTML, like Gecko) Chrome/123.0.0.0 Safari/537.36" version="24.2.5" etag="rr-dg7K5qtYo0SqVY6JU" type="github">
  <diagram name="第 1 页" id="3-ir8sG8A9ir57TGtiIx">
    <mxGraphModel>
      <root>
        <mxCell id="0" />
        <mxCell id="1" parent="0" />
      </root>
    </mxGraphModel>
  </diagram>
</mxfile>
